<svg width="50" height="50" viewBox="0 0 50 50" fill="none" xmlns="http://www.w3.org/2000/svg">
<mask id="mask0_1038_5295" style="mask-type:luminance" maskUnits="userSpaceOnUse" x="0" y="21" width="20" height="15">
<path d="M0.399414 21.1914H19.8242V35.4492H0.399414V21.1914Z" fill="white"/>
</mask>
<g mask="url(#mask0_1038_5295)">
<path d="M19.75 28.4091L5.38872 21.2012L0.389893 27.7693L5.44282 30.2932L5.48707 30.318L15.6814 35.4151L19.75 28.4091Z" fill="white"/>
</g>
<path d="M21.0489 14.6289V23.1308C21.0489 23.431 20.8078 23.6721 20.5076 23.6721C20.2074 23.6721 19.9663 23.431 19.9663 23.1308V14.6289L6.50537 20.5474L20.5122 27.5732L34.5142 20.5474L21.0489 14.6289Z" fill="white"/>
<path d="M35.5684 21.2363L21.335 28.3752L25.7825 34.2742L35.5291 29.438L39.1946 27.6176L35.5684 21.2363Z" fill="white"/>
<path d="M25.1865 35.2867L21.0537 29.8008V45.417L35.248 38.2977V30.7949L25.8654 35.4492C25.6247 35.5625 25.344 35.4984 25.1868 35.2867L25.1865 35.2867Z" fill="white"/>
<path d="M15.8973 36.675C15.8138 36.675 15.7348 36.6552 15.6562 36.6159L5.77246 31.6767V38.294L19.9668 45.418V30.2051L16.3703 36.4043C16.2673 36.5763 16.085 36.6748 15.8981 36.6748L15.8973 36.675Z" fill="white"/>
</svg>
