<svg width="50" height="50" viewBox="0 0 50 50" fill="none" xmlns="http://www.w3.org/2000/svg">
<path d="M13.079 10.0872C14.2399 10.176 15.076 9.24717 15.3393 8.14967C15.4728 7.59463 15.7207 6.48072 15.8024 5.91695C15.9859 4.60621 14.9124 3.44576 13.5952 3.34508C12.2756 3.2436 11.0401 4.22856 11.0244 5.5523C11.0157 6.12107 11.0649 7.26285 11.1404 7.82887C11.2968 9.02975 11.9208 9.99976 13.079 10.0872Z" fill="white"/>
<path d="M34.66 8.14966C34.9244 9.24712 35.7602 10.176 36.9203 10.0872C38.0788 9.99942 38.7029 9.03052 38.8582 7.82886C38.9341 7.26314 38.9841 6.12105 38.9764 5.5523C38.9612 4.22896 37.7252 3.24361 36.4045 3.34507C35.0858 3.44501 34.0139 4.60621 34.1985 5.91695C34.2771 6.48114 34.5261 7.59468 34.66 8.14966Z" fill="white"/>
<path d="M25.1348 27.3516C22.1452 27.3516 19.7217 29.7746 19.7217 32.7635C19.7217 35.7522 22.1451 38.1762 25.1348 38.1762C28.1221 38.1762 30.5459 35.7527 30.5459 32.7635C30.5455 29.7747 28.1225 27.3516 25.1348 27.3516ZM25.3308 35.2789L22.5625 32.99L23.6595 31.6633L24.9443 32.7257L26.7304 29.9974L28.1708 30.9404L25.3308 35.2789Z" fill="white"/>
<path d="M44.9932 27.342L46.8937 26.832L45.6627 20.1455L43.4815 14.3182V14.3193C42.9734 12.9682 41.6584 12.002 40.1161 12.002H35.4825C34.219 12.002 33.1089 12.6535 32.4689 13.6323L32.4685 13.6293L29.3591 18.1551L25 19.4238L20.6406 18.1558L17.5331 13.6301L17.532 13.6331C16.8908 12.6539 15.78 12.0027 14.5165 12.0027H9.88464C8.34235 12.0027 7.02663 12.969 6.51853 14.3201L6.51738 14.319L4.33691 20.1455L3.10596 26.832L5.00762 27.342L6.27598 21.9613L8.40918 17.7179L6.24131 41.8976H8.81855L11.6898 27.1065L12.1358 33.0902L12.523 41.8973H15.1002L15.4416 36.6753C18.5239 44.4569 24.4447 46.5151 24.7812 46.6255C24.8514 46.6488 24.9242 46.6598 24.9975 46.6598H25.0013C25.0745 46.6598 25.1478 46.6484 25.2176 46.6255C25.5544 46.5149 31.4744 44.4572 34.556 36.6763L34.897 41.8971H37.4749L37.8621 33.09L38.3069 27.1063L41.1801 41.8974H43.7562L41.5883 17.7177L43.7208 21.9611L44.9932 27.342ZM15.9912 17.1838L19.3344 20.6037L25.0004 21.3254L30.6664 20.6037L34.0104 17.1838L34.5311 24.3387C34.1878 24.3597 33.78 24.3764 33.3158 24.3764C31.0891 24.3764 27.9061 24.0198 25.3892 22.3199C25.1615 22.1658 24.8418 22.1658 24.6137 22.3199C22.0968 24.0197 18.9134 24.3764 16.6867 24.3764C16.2221 24.3764 15.8139 24.3597 15.4706 24.3387L15.9912 17.1838ZM35.0147 26.0545C35.0147 40.702 26.5026 44.6561 25.001 45.2391C23.4995 44.6562 14.9864 40.7019 14.9864 26.0545V25.6856C15.4144 25.7211 15.9973 25.7535 16.6858 25.7535C18.9963 25.7535 22.2674 25.3907 25.0007 23.7081C27.7343 25.3907 31.005 25.7535 33.3153 25.7535C34.0034 25.7535 34.586 25.7211 35.0143 25.6856L35.0139 26.0545H35.0147Z" fill="white"/>
</svg>
