<svg id="svg" fill="#000000" stroke="#000000" width="200px" height="200px" version="1.1" viewBox="144 144 512 512" xmlns="http://www.w3.org/2000/svg">
    <g id="IconSvg_bgCarrier" stroke-width="0"></g>
    <g id="IconSvg_tracerCarrier" stroke-linecap="round" stroke-linejoin="round" stroke="#CCCCCC"></g>
     <g id="IconSvg_iconCarrier">
      <g xmlns="http://www.w3.org/2000/svg">
  <path d="m274.55 338.03h250.9c9.5742 0 17.633-7.5586 17.633-17.633 0-10.078-7.5586-17.633-17.633-17.633l-250.9-0.003906c-9.5742 0-17.633 7.5586-17.633 17.633 0 10.078 8.0586 17.637 17.633 17.637z"></path>
  <path d="m274.55 422.17h250.9c9.5742 0 17.633-7.5586 17.633-17.633 0-10.078-7.5586-17.633-17.633-17.633l-250.9-0.003906c-9.5742 0-17.633 7.5586-17.633 17.633 0.50391 10.078 8.0586 17.637 17.633 17.637z"></path>
  <path d="m170.77 534.52h55.922v57.434c0 6.5508 4.0312 12.594 9.5742 15.617 2.5195 1.5117 5.0391 1.5117 7.5586 1.5117 4.0312 0 7.5586-1.5117 10.578-3.5273l93.707-71.039h281.12c9.5742 0 17.633-7.5586 17.633-17.633v-308.83c0-9.5742-7.5586-17.633-17.633-17.633h-458.46c-10.078 0-17.633 7.5586-17.633 17.633v309.34c0 9.5703 8.0586 17.129 17.633 17.129zm17.129-309.34h423.7v274.58h-269.54c-4.0312 0-7.5586 1.5117-10.578 3.5273l-70.031 53.402v-39.297c0-9.5742-7.5586-17.633-17.633-17.633h-55.922v-274.58z"></path>
 </g>

      </g>
      </svg>