<svg width="40" height="34" viewBox="0 0 40 34" fill="none" xmlns="http://www.w3.org/2000/svg">
<path d="M19.9604 28.9283C19.9604 29.383 19.5884 29.755 19.1337 29.755C18.6786 29.755 18.3071 29.383 18.3071 28.9283C18.3071 28.4736 18.6786 28.1017 19.1337 28.1017C19.5884 28.1017 19.9604 28.4736 19.9604 28.9283ZM39.6732 27.6886C39.6732 30.6511 37.2631 33.0609 34.3006 33.0609C32.2186 33.0609 30.4134 31.8684 29.5219 30.132C29.3201 30.0721 29.1461 29.9389 29.0397 29.7551H22.4403C21.9852 29.7551 21.6136 29.3831 21.6136 28.9284C21.6136 28.4737 21.9856 28.1018 22.4403 28.1018H28.7902C28.7276 26.1658 29.3681 24.9237 29.9838 24.1863C30.6846 23.3471 31.6756 22.7619 32.8147 22.49L32.5362 19.8364H31.4086C30.952 19.8364 30.5819 19.4668 30.5819 19.0098C30.5819 18.5528 30.952 18.1832 31.4086 18.1832H32.3626L32.1883 16.5306H31.4078C30.9512 16.5306 30.5812 16.161 30.5812 15.704C30.5812 15.247 30.9512 14.8773 31.4078 14.8773H32.0151L31.5944 10.8681L31.5314 10.2699L31.5162 10.1257L31.4078 9.09193V8.26529C31.4078 7.35548 30.6636 6.61197 29.7545 6.61197H28.9279V9.09156C28.9279 9.31433 28.8451 9.52109 28.6883 9.67864C28.6799 9.68703 28.6715 9.69504 28.6631 9.70382C28.6219 9.74501 28.5143 9.86022 28.3576 10.0513C28.0684 10.4065 27.8037 10.7864 27.5725 11.1668C27.0598 12.0186 26.4483 13.3576 26.4483 14.8781C26.4483 16.0347 26.5722 17.2837 26.7046 18.4982C26.8202 19.6636 26.9358 20.7633 26.9358 21.7716C26.9358 22.6391 26.8694 23.5573 26.4231 24.3588C26.01 25.1522 25.1005 25.6565 24.1087 25.6237L17.3567 25.6233H17.2903C15.5047 25.6233 14.5376 24.234 14.2237 22.937C14.0181 22.2072 13.9159 21.4169 13.8422 20.6638H12.3968C11.9402 20.6638 11.5702 20.2942 11.5702 19.8372C11.5702 19.3806 11.9402 19.0106 12.3968 19.0106H13.6836C13.6786 18.9697 13.6748 18.9263 13.6698 18.8866C13.5951 18.1179 13.4135 17.5232 13.2979 17.3993C13.2811 17.3829 13.2651 17.3741 13.2567 17.3657C13.2479 17.3577 13.2399 17.3577 13.2147 17.3577L2.71082 17.3581C2.70281 17.3745 2.69404 17.3909 2.68641 17.4153C2.56205 17.6549 2.43807 18.1103 2.33088 18.631C2.18706 19.3612 2.05774 20.3598 1.9536 21.5561C3.0747 20.4929 4.58729 19.838 6.25126 19.838C9.69784 19.838 12.5017 22.6418 12.5017 26.0884V28.1033H15.8284C16.2824 28.1033 16.655 28.4752 16.655 28.9299C16.655 29.3846 16.2831 29.7566 15.8284 29.7566L11.6742 29.7558H11.1566C10.3452 31.6952 8.42901 33.0617 6.19855 33.0617C3.96847 33.0617 2.05196 31.6953 1.24054 29.7558H0.825879C0.602334 29.7558 0.396347 29.6727 0.23956 29.5163C0.0820112 29.3587 0 29.1523 0 28.9292V26.0884C0 25.7416 0.0301359 25.4017 0.0843048 25.0698C0.0999454 24.6746 0.118255 24.2653 0.140761 23.8461C0.28953 21.1849 0.512314 18.2259 1.18178 16.713C1.28134 16.5192 1.41829 16.2533 1.65327 16.0412L1.65289 14.8773C1.65289 13.5101 2.7649 12.3977 4.13248 12.3977H13.2237C14.5909 12.3977 15.7033 13.5101 15.7033 14.8773C15.7033 15.6281 15.3668 16.3006 14.8377 16.7556C14.8755 16.8316 14.9087 16.9082 14.9342 16.9849C15.1906 17.6128 15.2734 18.3235 15.3554 19.0593C15.3722 19.2417 15.3882 19.4233 15.405 19.6048C15.5209 20.9518 15.6445 22.3414 16.05 23.1346C16.3892 23.7209 16.6371 23.9361 17.3562 23.9689H24.1089C24.6952 23.9437 24.8032 23.8194 24.9852 23.539C25.1835 23.2166 25.2907 22.556 25.2823 21.7709C25.2903 20.9115 25.1828 19.878 25.0672 18.779C24.9352 17.4977 24.7944 16.1839 24.7944 14.8781C24.8188 11.8942 26.5298 9.62111 27.274 8.77843V8.26573C27.2077 8.26535 27.1401 8.25734 27.0734 8.24056L23.7675 7.41391C23.3246 7.30329 23.0557 6.85468 23.1659 6.41216C23.2777 5.9685 23.7282 5.69919 24.1689 5.81097L27.2744 6.58726V5.92007L26.4901 3.56792C26.4615 3.48323 26.4478 3.39512 26.4478 3.30623V0.82664C26.4478 0.370019 26.8178 0 27.2744 0C27.7307 0 28.1011 0.369648 28.1011 0.82664V3.17195L28.6969 4.95877H29.7543C31.0521 4.95877 32.1717 5.7076 32.7126 6.7948C33.0232 6.57852 33.3699 6.41219 33.7468 6.31149C34.6006 6.0826 35.4913 6.20086 36.2565 6.64146L36.9718 7.05459C37.3673 7.28271 37.5028 7.78815 37.2743 8.18369L34.7947 12.4775C34.6848 12.6675 34.5044 12.8064 34.2927 12.8628C34.2225 12.8815 34.15 12.8914 34.0787 12.8914C33.9348 12.8914 33.7922 12.8529 33.6655 12.7808L33.4382 12.6496L34.454 22.3236C37.3451 22.4064 39.6728 24.7784 39.6728 27.6886L39.6732 27.6886ZM37.8754 28.7044L31.3152 29.8977C31.9939 30.8117 33.0776 31.4083 34.3006 31.4083C35.9989 31.4079 37.4321 30.2628 37.8754 28.7044ZM34.6061 7.85089C34.4623 7.85089 34.3178 7.87073 34.1751 7.9085C33.749 8.02218 33.3923 8.29568 33.1719 8.6783C33.1276 8.75459 33.0918 8.83394 33.0609 8.91443V9.05023L33.1986 10.3628C33.3409 10.5959 33.5331 10.7954 33.7765 10.9354L35.429 8.0736C35.175 7.92598 34.8923 7.85089 34.6061 7.85089ZM34.629 23.9837C34.5207 23.9742 34.4116 23.9688 34.301 23.9688C34.1324 23.9688 33.9664 23.9787 33.8035 23.9948C33.5205 24.0234 33.2481 24.076 32.9887 24.1516C32.2845 24.3576 31.681 24.731 31.2523 25.2452C30.661 25.9536 30.3936 26.913 30.4455 28.1009C30.4493 28.1913 30.4508 28.2798 30.4584 28.3729L30.6423 28.3393L31.8977 28.1112L32.9791 27.9143L37.9554 27.0091L37.9585 27.0087C37.9562 26.9965 37.9527 26.9847 37.9501 26.9725C37.9413 26.9279 37.9298 26.884 37.9195 26.8397C37.9028 26.7703 37.886 26.7009 37.8665 26.633C37.8528 26.5868 37.8375 26.5418 37.8219 26.4968C37.8001 26.4323 37.7773 26.3682 37.7521 26.3061C37.7345 26.2614 37.7151 26.2172 37.6949 26.1726C37.6674 26.1115 37.6384 26.0516 37.6079 25.9921C37.5861 25.9498 37.564 25.9071 37.5411 25.8659C37.5076 25.8067 37.4717 25.7491 37.4355 25.6923C37.411 25.6534 37.3866 25.6145 37.3607 25.5767C37.3195 25.5172 37.2756 25.46 37.231 25.4035C37.2054 25.3715 37.1818 25.3379 37.1558 25.3066C37.096 25.2341 37.0319 25.1655 36.9663 25.098C36.9529 25.0842 36.9411 25.0697 36.9277 25.0568C36.8484 24.9774 36.766 24.9026 36.6798 24.8309C36.6508 24.8069 36.6191 24.7848 36.5897 24.7615C36.5306 24.7153 36.4715 24.6692 36.4097 24.6268C36.3727 24.6013 36.3338 24.5776 36.2956 24.5532C36.238 24.517 36.1804 24.4804 36.1209 24.4468C36.0797 24.4235 36.0366 24.4022 35.9946 24.38C35.9351 24.3495 35.8752 24.3201 35.8142 24.2931C35.7699 24.2732 35.7257 24.2545 35.6807 24.2366C35.6177 24.2114 35.5544 24.1885 35.4899 24.1668C35.4445 24.1515 35.3995 24.1363 35.353 24.1225C35.2855 24.1023 35.2168 24.0855 35.1478 24.0695C35.1031 24.0592 35.0589 24.0478 35.0135 24.039C34.9364 24.0241 34.8578 24.0134 34.7793 24.0031C34.7404 23.9982 34.7026 23.9909 34.6633 23.9875C34.6503 23.9867 34.6401 23.9848 34.629 23.9837ZM3.3058 15.7039H13.2238C13.6792 15.7039 14.0504 15.3335 14.0504 14.8773C14.0504 14.421 13.6796 14.0506 13.2238 14.0506H4.13216C3.67669 14.0506 3.30552 14.4211 3.30552 14.8773L3.3058 15.7039ZM1.99505 24.3526C1.87642 24.6432 1.78792 24.9488 1.73032 25.2658C1.68225 25.5324 1.65326 25.806 1.65326 26.0871V28.1017H10.8486V26.0867C10.8486 25.5744 10.7608 25.0835 10.606 24.6234C9.99294 22.8046 8.27442 21.4893 6.25107 21.4893C4.32881 21.4896 2.68089 22.6756 1.99505 24.3526ZM9.28949 29.7549H3.10853C3.77648 30.7505 4.91215 31.4082 6.19886 31.4082C7.48558 31.4078 8.62162 30.7506 9.28949 29.7549Z" fill="white"/>
</svg>
