<svg width="30" height="30" viewBox="0 0 30 30" fill="none" xmlns="http://www.w3.org/2000/svg">
<g clip-path="url(#clip0_1038_5312)">
<path d="M4.08223 14.1561H7.71229C7.95673 14.1561 8.15975 13.953 8.15975 13.7086V10.217C8.15975 9.97255 7.95673 9.76953 7.71229 9.76953H4.08223C3.83778 9.76953 3.63477 9.97255 3.63477 10.217V13.7086C3.63934 13.953 3.83778 14.1561 4.08223 14.1561Z" fill="white"/>
<path d="M10.1848 14.1561H13.8148C14.0639 14.1561 14.2623 13.953 14.2623 13.7086V10.217C14.2623 9.97255 14.0639 9.76953 13.8148 9.76953H10.1848C9.94032 9.76953 9.7373 9.97255 9.7373 10.217V13.7086C9.7373 13.953 9.94009 14.1561 10.1848 14.1561Z" fill="white"/>
<path d="M16.2868 14.1561H19.9169C20.1613 14.1561 20.3643 13.953 20.3643 13.7086V10.217C20.3643 9.97255 20.1613 9.76953 19.9169 9.76953H16.2868C16.0424 9.76953 15.8394 9.97255 15.8394 10.217V13.7086C15.8394 13.953 16.0424 14.1561 16.2868 14.1561Z" fill="white"/>
<path d="M22.3894 14.1561H26.0194C26.2684 14.1561 26.4669 13.953 26.4669 13.7086V10.217C26.4669 9.97255 26.2684 9.76953 26.0194 9.76953H22.3894C22.1449 9.76953 21.9419 9.97255 21.9419 10.217V13.7086C21.9419 13.953 22.1449 14.1561 22.3894 14.1561Z" fill="white"/>
<path d="M3.9809 26.4102H7.61096C7.85541 26.4102 8.05843 26.2072 8.05843 25.9627L8.0582 22.4709C8.0582 22.2219 7.85518 22.0234 7.61073 22.0234L3.98091 22.0237C3.73189 22.0237 3.53345 22.2221 3.53345 22.4711V25.9627C3.53345 26.2118 3.73165 26.4102 3.9809 26.4102Z" fill="white"/>
<path d="M10.0827 26.4102H13.7128C13.9572 26.4102 14.1602 26.2072 14.1602 25.9627V22.4709C14.1602 22.2219 13.9572 22.0234 13.7128 22.0234H10.0827C9.83827 22.0234 9.63525 22.2219 9.63525 22.4709V25.9625C9.63525 26.2118 9.83827 26.4102 10.0827 26.4102Z" fill="white"/>
<path d="M4.08223 20.2811H7.71229C7.95673 20.2811 8.15975 20.078 8.15975 19.8336V16.342C8.15975 16.0975 7.95673 15.8945 7.71229 15.8945H4.08223C3.83778 15.8945 3.63477 16.0975 3.63477 16.342V19.8336C3.63934 20.0828 3.83778 20.2811 4.08223 20.2811Z" fill="white"/>
<path d="M10.1848 20.2811H13.8148C14.0639 20.2811 14.2623 20.078 14.2623 19.8336V16.342C14.2623 16.0975 14.0639 15.8945 13.8148 15.8945H10.1848C9.94032 15.8945 9.7373 16.0975 9.7373 16.342V19.8336C9.7373 20.0828 9.94009 20.2811 10.1848 20.2811Z" fill="white"/>
<path d="M16.2868 20.2811H19.9169C20.1613 20.2811 20.3643 20.078 20.3643 19.8336V16.342C20.3643 16.0975 20.1613 15.8945 19.9169 15.8945H16.2868C16.0424 15.8945 15.8394 16.0975 15.8394 16.342V19.8336C15.8394 20.0828 16.0424 20.2811 16.2868 20.2811Z" fill="white"/>
<path d="M22.3894 20.2811H26.0194C26.2684 20.2811 26.4669 20.078 26.4669 19.8336V16.342C26.4669 16.0975 26.2684 15.8945 26.0194 15.8945H22.3894C22.1449 15.8945 21.9419 16.0975 21.9419 16.342V19.8336C21.9419 20.0828 22.1449 20.2811 22.3894 20.2811Z" fill="white"/>
<mask id="mask0_1038_5312" style="mask-type:luminance" maskUnits="userSpaceOnUse" x="0" y="1" width="30" height="29">
<path d="M0.239746 1.93359H29.7599V29.5312H0.239746V1.93359Z" fill="white"/>
</mask>
<g mask="url(#mask0_1038_5312)">
<path d="M27.7075 1.94144H25.7425V3.05771L25.7428 3.28385V4.26623C25.7428 4.9165 25.2122 5.45621 24.5528 5.45621H23.7549C23.0998 5.45621 22.5649 4.92109 22.5649 4.26623L22.5647 3.0623V2.16758H7.43578V4.27098C7.43578 4.92125 6.90523 5.46096 6.2458 5.46096H5.44313C4.79285 5.46096 4.25777 4.92583 4.25777 4.27098V1.94141H2.28826C1.15805 1.94141 0.240234 2.85945 0.240234 3.98943V27.4533C0.240234 28.5833 1.15805 29.5059 2.28826 29.5059H27.708C28.838 29.5059 29.7606 28.5835 29.7606 27.4533L29.7604 3.98943C29.7604 2.85945 28.838 1.94141 27.7078 1.94141L27.7075 1.94144ZM28.4179 27.4532C28.4179 27.8452 28.0995 28.1634 27.7077 28.1634L2.28797 28.1636C1.90047 28.1636 1.58233 27.8452 1.58233 27.4534L1.5821 8.02546H28.4221V27.4534L28.4179 27.4532Z" fill="white"/>
</g>
<path d="M5.44273 4.7424H6.24541C6.50839 4.7424 6.72057 4.53022 6.72057 4.26724L6.72034 0.964718C6.72034 0.706308 6.50816 0.494141 6.24518 0.494141H5.4425C5.18409 0.494141 4.97192 0.706314 4.97192 0.964718V4.26724C4.97215 4.53022 5.18432 4.7424 5.44273 4.7424Z" fill="white"/>
<path d="M23.7545 4.7424H24.5523C24.8153 4.7424 25.0275 4.53022 25.0275 4.26724V0.964718C25.0275 0.706308 24.8153 0.494141 24.5523 0.494141H23.7545C23.4915 0.494141 23.2793 0.706314 23.2793 0.964718V4.26724C23.2793 4.53022 23.4915 4.7424 23.7545 4.7424Z" fill="white"/>
</g>
<defs>
<clipPath id="clip0_1038_5312">
<rect width="30" height="30" fill="white"/>
</clipPath>
</defs>
</svg>
