<svg id="visual" viewBox="0 0 900 600" width="900" height="600" xmlns="http://www.w3.org/2000/svg" xmlns:xlink="http://www.w3.org/1999/xlink" version="1.1"><path d="M0 148L21.5 158.8C43 169.7 86 191.3 128.8 191.8C171.7 192.3 214.3 171.7 257.2 173.7C300 175.7 343 200.3 385.8 209C428.7 217.7 471.3 210.3 514.2 217.2C557 224 600 245 642.8 255C685.7 265 728.3 264 771.2 248C814 232 857 201 878.5 185.5L900 170L900 0L878.5 0C857 0 814 0 771.2 0C728.3 0 685.7 0 642.8 0C600 0 557 0 514.2 0C471.3 0 428.7 0 385.8 0C343 0 300 0 257.2 0C214.3 0 171.7 0 128.8 0C86 0 43 0 21.5 0L0 0Z" fill="#0066FF" stroke-linecap="round" stroke-linejoin="miter"></path></svg>